<svg xmlns="http://www.w3.org/2000/svg" xmlns:xlink="http://www.w3.org/1999/xlink" version="1.1" x="0px" y="0px" viewBox="0 0 100 100">
    <path d="M85.002,18.938c-3.998,0-7.25,3.252-7.25,7.25c0,0.813,0.141,1.593,0.389,2.323c0-0.001,0-0.001,0-0.002l-12.813,8.875   c-1.209-0.904-2.703-1.446-4.326-1.446c-1.785,0-3.418,0.651-4.682,1.725l-12.412-8.274c0,0,0,0,0,0.001   c0.222-0.695,0.344-1.434,0.344-2.202c0-3.998-3.252-7.25-7.25-7.25s-7.25,3.252-7.25,7.25c0,0.543,0.065,1.07,0.179,1.579   l-9.777,5.333c-1.345-1.359-3.188-2.157-5.147-2.157c-4.003,0-7.26,3.248-7.26,7.24c0,4.003,3.257,7.26,7.26,7.26   c3.992,0,7.24-3.257,7.24-7.26c0-0.531-0.069-1.056-0.183-1.569l9.782-5.336c0,0,0-0.001-0.001-0.001   c1.315,1.333,3.14,2.162,5.156,2.162c1.785,0,3.418-0.651,4.683-1.725l12.411,8.274c-0.221,0.695-0.344,1.434-0.344,2.201   c0,3.998,3.252,7.25,7.25,7.25s7.25-3.252,7.25-7.25c0-0.924-0.18-1.806-0.496-2.62l12.66-8.771c1.252,1.024,2.848,1.64,4.586,1.64   c3.998,0,7.25-3.252,7.25-7.25S89,18.938,85.002,18.938z M15.007,43.442c-2.349,0-4.26-1.911-4.26-4.26   c0-2.338,1.911-4.24,4.26-4.24c1.547,0,2.975,0.848,3.725,2.212c0.337,0.613,0.515,1.314,0.515,2.028   C19.248,41.531,17.345,43.442,15.007,43.442z M37.002,31.438c-2.343,0-4.25-1.907-4.25-4.25s1.907-4.25,4.25-4.25   s4.25,1.907,4.25,4.25S39.346,31.438,37.002,31.438z M61.002,47.438c-2.344,0-4.25-1.907-4.25-4.25s1.906-4.25,4.25-4.25   s4.25,1.907,4.25,4.25S63.346,47.438,61.002,47.438z M85.002,30.438c-2.344,0-4.25-1.907-4.25-4.25s1.906-4.25,4.25-4.25   s4.25,1.907,4.25,4.25S87.346,30.438,85.002,30.438z M24.234,38.708c0.009,0.16,0.014,0.318,0.014,0.475   c0,5.106-4.145,9.26-9.24,9.26c-0.47,0-0.929-0.046-1.38-0.114v32.734h21V36.125c-1.087-0.288-2.113-0.768-3.031-1.434   L24.234,38.708z M51.752,43.188c0-0.435,0.031-0.869,0.092-1.298l-10.126-6.751c-1.242,0.739-2.646,1.158-4.09,1.257v44.667h21   V52.117C54.676,51.064,51.752,47.466,51.752,43.188z M70.074,41.395c0.119,0.59,0.178,1.189,0.178,1.793   c0,4.89-3.816,8.895-8.625,9.219v28.656h21V35.125c-0.768-0.205-1.508-0.508-2.199-0.902L70.074,41.395z"/>
</svg>
