<svg xmlns="http://www.w3.org/2000/svg" data-name="Layer 1" viewBox="0 0 100 125" x="0px" y="0px">
    <path d="M79,66H69a1,1,0,0,1-1-1V47a1,1,0,0,1,1-1H79a1,1,0,0,1,1,1V65A1,1,0,0,1,79,66Zm-9-2h8V48H70V64Z"/>
    <path d="M74,48a1,1,0,0,1-1-1V42a1,1,0,0,1,2,0v5A1,1,0,0,1,74,48Z"/>
    <path d="M74,71a1,1,0,0,1-1-1V65a1,1,0,0,1,2,0v5A1,1,0,0,1,74,71Z"/>
    <path d="M63,56H53a1,1,0,0,1-1-1V24a1,1,0,0,1,1-1H63a1,1,0,0,1,1,1V55A1,1,0,0,1,63,56Zm-9-2h8V25H54V54Z"/>
    <path d="M58,25a1,1,0,0,1-1-1V19a1,1,0,0,1,2,0v5A1,1,0,0,1,58,25Z"/>
    <path d="M58,61a1,1,0,0,1-1-1V55a1,1,0,0,1,2,0v5A1,1,0,0,1,58,61Z"/>
    <path d="M47,77H37a1,1,0,0,1-1-1V46a1,1,0,0,1,1-1H47a1,1,0,0,1,1,1V76A1,1,0,0,1,47,77Zm-9-2h8V47H38V75Z"/>
    <path d="M42,47a1,1,0,0,1-1-1V41a1,1,0,0,1,2,0v5A1,1,0,0,1,42,47Z"/>
    <path d="M42,82a1,1,0,0,1-1-1V76a1,1,0,0,1,2,0v5A1,1,0,0,1,42,82Z"/>
    <circle cx="42" cy="72.01" r="1"/><circle cx="42" cy="65.01" r="1"/>
    <circle cx="46" cy="68.01" r="1"/><circle cx="38" cy="68.01" r="1"/>
    <circle cx="46" cy="62.01" r="1"/><circle cx="38" cy="62.01" r="1"/>
    <circle cx="42" cy="58.01" r="1"/><circle cx="42" cy="51.01" r="1"/>
    <circle cx="46" cy="54.01" r="1"/><circle cx="38" cy="54.01" r="1"/>
    <circle cx="58.04" cy="50" r="1"/><circle cx="58.04" cy="43" r="1"/>
    <circle cx="62.04" cy="46" r="1"/><circle cx="54.04" cy="46" r="1"/>
    <circle cx="62.04" cy="40" r="1"/><circle cx="54.04" cy="40" r="1"/>
    <circle cx="58.04" cy="36" r="1"/><circle cx="58.04" cy="29" r="1"/>
    <circle cx="62.04" cy="32" r="1"/><circle cx="54.04" cy="32" r="1"/>
    <path d="M31,66H21a1,1,0,0,1-1-1V30a1,1,0,0,1,1-1H31a1,1,0,0,1,1,1V65A1,1,0,0,1,31,66Zm-9-2h8V31H22V64Z"/><path d="M26,31a1,1,0,0,1-1-1V25a1,1,0,0,1,2,0v5A1,1,0,0,1,26,31Z"/><path d="M26,71a1,1,0,0,1-1-1V65a1,1,0,0,1,2,0v5A1,1,0,0,1,26,71Z"/>
</svg>
