<svg xmlns="http://www.w3.org/2000/svg" xmlns:xlink="http://www.w3.org/1999/xlink" version="1.1" x="0px" y="0px" viewBox="0 0 512 640" enable-background="new 0 0 512 512" xml:space="preserve">
    <path d="M404.2,237.3c-8.2-67.8-61.9-121.7-129.6-130.2V68.5h-37.4v38.7c-67.7,8.5-121.4,62.4-129.6,130.2H68.5v37.4H108  c8.8,67.1,62.1,120.3,129.3,128.7v40.1h37.4v-40.1c67.2-8.4,120.6-61.6,129.3-128.7h39.5v-37.4H404.2z M366.3,274.7  c-8.2,46.5-45,83.1-91.6,91v-37.1h-37.4v37.1c-46.6-7.9-83.4-44.5-91.6-91h37.7v-37.4h-37.9c7.6-47.2,44.7-84.5,91.8-92.4v38.5h37.4  v-38.5c47.1,7.9,84.2,45.3,91.8,92.4h-37.9v37.4H366.3z"/>
</svg>
